<?xml version="1.0" encoding="utf-8"?>
<!-- Generator: Adobe Illustrator 18.0.0, SVG Export Plug-In . SVG Version: 6.00 Build 0)  -->
<!DOCTYPE svg PUBLIC "-//W3C//DTD SVG 1.1//EN" "http://www.w3.org/Graphics/SVG/1.1/DTD/svg11.dtd">
<svg version="1.1" id="Layer_1" xmlns="http://www.w3.org/2000/svg" xmlns:xlink="http://www.w3.org/1999/xlink" x="0px" y="0px"
	 width="800px" height="500px" viewBox="0 0 800 500" enable-background="new 0 0 800 500" xml:space="preserve">
<g>
	<g display="none">
		<path display="inline" fill="#010202" d="M578.2,196.3c-3-2.2-9.2-3.9-17-1.2c-0.1,0-0.2,0.2-0.1,0.3c0,0.1,0.2,0.2,0.3,0.1
			c7.6-3.1,13.8-1,16.6,1.2c1.7,1.3,2.8,2.9,2.7,4.6c-0.3,5.1-7.2,7.4-13.3,7.4c-5.3,0-10.6-1.7-14-4.6c-1.1-0.9-1.8-1.7-2.2-2.4
			c0.4-0.3,0.7-0.7,0.8-1.1c0-0.1,0-0.2,0-0.3c0-0.4-0.1-0.7-0.4-0.8c-0.3-0.1-0.6,0-0.8,0.3c-0.1,0.2-0.2,0.4-0.2,0.7
			c0,0.3,0.1,0.7,0.4,1.1c-0.8,0.9-2.3,1.8-5.2,1.8c-4.2,0-7.5-1.5-10.7-3c-1.3-0.6-2.7-1.2-4.1-1.7c-6.6-2.4-12.2-1.2-12.2-1.2
			c-0.1,0-0.2,0.1-0.2,0.3c0,0.1,0.1,0.2,0.3,0.2c0.1,0,4.7-1.5,11.2,0.8c1.4,0.5,3.8,1.8,5.1,2.3c3.1,1.4,5.9,2.5,10.2,2.6
			c3.4,0.1,4.7-0.9,5.6-1.8c0.4,0.7,1.4,1.8,2.4,2.6c3.6,3,8.4,4.8,13.8,4.8c6.4,0,13.5-2.7,13.7-8.1
			C581,199.4,580,197.6,578.2,196.3z M550.9,200.7c0-0.2,0.1-0.4,0.2-0.5c0-0.1,0.2-0.2,0.3-0.1c0.1,0,0.2,0.1,0.2,0.4
			c0,0.1,0,0.1,0,0.2c-0.1,0.2-0.2,0.5-0.5,0.7C550.9,201.1,550.9,200.9,550.9,200.7z"/>
		<path display="inline" fill="#010202" d="M533.9,197c0,0,4-3.5,12.2-3.5c9.1,0,15.9,4.1,16.1,7.8c0.2,3.2-2.3,4.5-2.4,4.6
			c-0.1,0.1-0.1,0.2-0.1,0.3c0.1,0.1,0.2,0.1,0.3,0.1c0,0,2.6-1.6,2.4-5c-0.3-3.8-6.4-8-15.8-8c-8.4,0-13,3.3-13,3.4
			c-0.1,0.1-0.1,0.2,0,0.3C533.7,197.1,533.8,197.1,533.9,197z"/>
		<path display="inline" fill="#010202" d="M530.9,205.2c-9-3.8-14.3-2.8-14.3-2.8s4.4-0.2,9,1.4c4.6,1.6,13.4,6.5,20.6,6.5
			c7.2,0,11.3-2.7,11.3-2.7C547.1,211.9,539.5,208.9,530.9,205.2z"/>
	</g>
	<g display="none">
		<path display="inline" fill="#010202" d="M227.5,202.9c0.3,5.4,7.4,8.1,13.7,8.1c5.4,0,10.2-1.8,13.8-4.8c1-0.9,2-1.9,2.4-2.6
			c1,0.9,2.2,1.9,5.6,1.8c4.3-0.1,7.2-1.2,10.2-2.6c1.3-0.6,3.7-1.8,5.1-2.3c6.5-2.3,11.2-0.8,11.2-0.8c0.1,0,0.2,0,0.3-0.2
			c0-0.1,0-0.2-0.2-0.3c-0.1,0-5.6-1.2-12.2,1.2c-1.4,0.5-2.8,1.1-4.1,1.7c-3.2,1.5-6.5,3-10.7,3c-2.9,0-4.4-0.9-5.2-1.8
			c0.3-0.4,0.4-0.8,0.4-1.1c0-0.3-0.1-0.6-0.2-0.7c-0.2-0.3-0.5-0.4-0.8-0.3c-0.3,0.1-0.4,0.4-0.4,0.8c0,0.1,0,0.2,0,0.3
			c0.1,0.4,0.3,0.8,0.8,1.1c-0.3,0.6-1.1,1.5-2.2,2.4c-3.5,2.9-8.7,4.6-14,4.6c-6.2,0-13.1-2.3-13.3-7.4c-0.1-1.7,1-3.3,2.7-4.6
			c2.9-2.2,9-4.3,16.6-1.2c0.1,0,0.2,0,0.3-0.1c0-0.1,0-0.2-0.1-0.3c-7.8-2.7-14.1-1-17,1.2C228.4,199.3,227.4,201.1,227.5,202.9z
			 M257.4,203.1c-0.2-0.2-0.4-0.5-0.5-0.7c0-0.1,0-0.2,0-0.2c0-0.2,0.1-0.3,0.2-0.4c0.2,0,0.3,0.1,0.3,0.1c0.1,0.1,0.2,0.3,0.2,0.5
			C257.5,202.6,257.5,202.8,257.4,203.1z"/>
		<path display="inline" fill="#010202" d="M274.5,198.7c0,0-4-3.5-12.2-3.5c-9.1,0-15.9,4.1-16.1,7.8c-0.2,3.2,2.3,4.5,2.4,4.6
			c0.1,0.1,0.1,0.2,0.1,0.3c-0.1,0.1-0.2,0.1-0.3,0.1c0,0-2.6-1.6-2.4-5c0.3-3.8,6.4-8,15.7-8c8.4,0,13,3.3,13,3.4
			c0.1,0.1,0.1,0.2,0,0.3C274.7,198.8,274.6,198.8,274.5,198.7z"/>
		<path display="inline" fill="#010202" d="M277.5,207c9-3.8,14.3-2.8,14.3-2.8s-4.4-0.2-9,1.4c-4.6,1.6-13.4,6.5-20.6,6.5
			c-7.2,0-11.3-2.7-11.3-2.7C261.3,213.6,268.8,210.6,277.5,207z"/>
	</g>
	<g display="none">
		<path display="inline" fill="#010202" d="M470.7,327.1c-2.1-1.6-6.6-2.8-12.3-0.9c-0.1,0-0.1,0.1-0.1,0.2c0,0.1,0.1,0.1,0.2,0.1
			c5.5-2.3,9.9-0.7,12,0.8c1.2,0.9,2,2.1,1.9,3.3c-0.2,3.7-5.2,5.4-9.6,5.4c-3.8,0-7.6-1.3-10.1-3.3c-0.8-0.6-1.3-1.2-1.6-1.7
			c0.3-0.2,0.5-0.5,0.5-0.8c0-0.1,0-0.2,0-0.2c0-0.3-0.1-0.5-0.3-0.6c-0.2-0.1-0.4,0-0.6,0.2c-0.1,0.1-0.1,0.3-0.1,0.5
			c0,0.2,0.1,0.5,0.3,0.8c-0.6,0.6-1.7,1.3-3.8,1.3c-3,0-5.4-1.1-7.7-2.2c-0.9-0.4-1.9-0.9-2.9-1.3c-4.8-1.7-8.8-0.9-8.8-0.9
			c-0.1,0-0.1,0.1-0.1,0.2c0,0.1,0.1,0.1,0.2,0.1c0,0,3.4-1.1,8.1,0.6c1,0.4,2.8,1.3,3.7,1.7c2.2,1,4.3,1.8,7.4,1.9
			c2.4,0.1,3.4-0.7,4.1-1.3c0.3,0.5,1,1.3,1.7,1.9c2.6,2.1,6,3.5,9.9,3.5c4.6,0,9.7-1.9,9.9-5.8C472.7,329.4,472,328.1,470.7,327.1z
			 M451,330.3c0-0.2,0.1-0.3,0.1-0.4c0,0,0.1-0.1,0.2-0.1c0.1,0,0.1,0.1,0.1,0.3c0,0,0,0.1,0,0.2c0,0.2-0.2,0.3-0.3,0.5
			C451,330.6,451,330.5,451,330.3z"/>
		<path display="inline" fill="#010202" d="M438.8,327.7c0,0,2.9-2.5,8.8-2.5c6.6,0,11.4,3,11.6,5.6c0.2,2.3-1.7,3.3-1.7,3.3
			c-0.1,0-0.1,0.1-0.1,0.2c0,0.1,0.1,0.1,0.2,0.1c0,0,1.9-1.1,1.7-3.6c-0.2-2.8-4.6-5.7-11.3-5.7c-6,0-9.4,2.4-9.4,2.4
			c-0.1,0.1-0.1,0.1,0,0.2C438.6,327.7,438.7,327.7,438.8,327.7z"/>
		<path display="inline" fill="#010202" d="M436.6,333.6c-6.5-2.7-10.3-2-10.3-2s3.2-0.1,6.5,1c3.3,1.2,9.6,4.7,14.8,4.7
			c5.2,0,8.1-2,8.1-2C448.3,338.4,442.8,336.2,436.6,333.6z"/>
	</g>
	<g display="none">
		<path display="inline" fill="#010202" d="M327.4,331.9c0.2,3.9,5.3,5.8,9.9,5.8c3.9,0,7.4-1.3,9.9-3.5c0.7-0.6,1.5-1.4,1.7-1.9
			c0.7,0.7,1.6,1.4,4.1,1.3c3.1-0.1,5.2-0.9,7.4-1.9c0.9-0.4,2.7-1.3,3.7-1.7c4.7-1.7,8.1-0.6,8.1-0.6c0.1,0,0.2,0,0.2-0.1
			c0-0.1,0-0.2-0.1-0.2c0,0-4-0.9-8.8,0.9c-1,0.4-2,0.8-2.9,1.3c-2.3,1.1-4.7,2.2-7.7,2.2c-2.1,0-3.2-0.6-3.8-1.3
			c0.2-0.3,0.3-0.6,0.3-0.8c0-0.2-0.1-0.4-0.1-0.5c-0.1-0.2-0.3-0.3-0.6-0.2c-0.2,0.1-0.3,0.3-0.3,0.6c0,0.1,0,0.1,0,0.2
			c0,0.3,0.2,0.5,0.5,0.8c-0.2,0.5-0.8,1.1-1.6,1.7c-2.5,2.1-6.3,3.3-10.1,3.3c-4.4,0-9.4-1.7-9.6-5.4c-0.1-1.2,0.7-2.4,1.9-3.3
			c2.1-1.6,6.5-3.1,12-0.8c0.1,0,0.2,0,0.2-0.1c0-0.1,0-0.2-0.1-0.2c-5.6-1.9-10.1-0.7-12.3,0.9C328,329.4,327.4,330.6,327.4,331.9z
			 M348.9,332.1c-0.2-0.2-0.3-0.3-0.3-0.5c0-0.1,0-0.1,0-0.2c0-0.2,0.1-0.2,0.1-0.3c0.1,0,0.2,0.1,0.2,0.1c0.1,0.1,0.1,0.2,0.1,0.4
			C349,331.7,349,331.9,348.9,332.1z"/>
		<path display="inline" fill="#010202" d="M361.3,328.9c0,0-2.9-2.5-8.8-2.5c-6.6,0-11.4,3-11.6,5.6c-0.2,2.3,1.7,3.3,1.7,3.3
			c0.1,0,0.1,0.1,0.1,0.2c0,0.1-0.1,0.1-0.2,0.1c0,0-1.9-1.1-1.7-3.6c0.2-2.8,4.6-5.7,11.3-5.7c6,0,9.4,2.4,9.4,2.4
			c0.1,0.1,0.1,0.1,0,0.2C361.4,329,361.3,329,361.3,328.9z"/>
		<path display="inline" fill="#010202" d="M363.4,334.9c6.5-2.7,10.3-2,10.3-2s-3.2-0.1-6.5,1c-3.3,1.2-9.6,4.7-14.8,4.7
			c-5.2,0-8.1-2-8.1-2C351.7,339.7,357.2,337.5,363.4,334.9z"/>
	</g>
</g>
<g>
	<path fill="#4B77BB" d="M133.3,241.4c5.2,0,7.8,3.1,7.8,8.5v1.1h-5v-1.4c0-2.4-1-3.3-2.7-3.3s-2.7,0.9-2.7,3.3
		c0,7,10.4,8.3,10.4,17.9c0,5.4-2.7,8.5-7.9,8.5s-7.9-3.1-7.9-8.5v-2.1h5v2.4c0,2.4,1.1,3.3,2.8,3.3s2.8-0.9,2.8-3.3
		c0-7-10.4-8.3-10.4-17.9C125.5,244.5,128.1,241.4,133.3,241.4z"/>
	<path fill="#4B77BB" d="M161.4,275.7h-5.4l-0.9-6.1h-6.5l-0.9,6.1h-4.9l5.4-33.8h7.8L161.4,275.7z M149.3,264.9h5.1l-2.6-17.1
		L149.3,264.9z"/>
	<path fill="#4B77BB" d="M168.6,251.2v24.5h-4.8v-33.8h6.7l5.5,20.3v-20.3h4.7v33.8h-5.5L168.6,251.2z"/>
	<path fill="#4B77BB" d="M197.4,256.9h6.9v4.8h-6.9v14H192v-33.8h14.1v4.8h-8.7V256.9z"/>
	<path fill="#4B77BB" d="M219.8,275.7c-0.3-0.9-0.5-1.4-0.5-4.2v-5.3c0-3.1-1.1-4.3-3.5-4.3H214v13.8h-5.3v-33.8h8
		c5.5,0,7.9,2.6,7.9,7.8v2.7c0,3.5-1.1,5.8-3.5,6.9c2.7,1.1,3.5,3.7,3.5,7.2v5.2c0,1.6,0,2.9,0.6,4.1H219.8z M214,246.7v10.4h2.1
		c2,0,3.2-0.9,3.2-3.6v-3.3c0-2.4-0.8-3.5-2.7-3.5H214z"/>
	<path fill="#4B77BB" d="M245.3,275.7h-5.4l-0.9-6.1h-6.5l-0.9,6.1h-4.9l5.4-33.8h7.8L245.3,275.7z M233.2,264.9h5.1l-2.6-17.1
		L233.2,264.9z"/>
	<path fill="#4B77BB" d="M252.5,251.2v24.5h-4.8v-33.8h6.7l5.5,20.3v-20.3h4.7v33.8h-5.5L252.5,251.2z"/>
	<path fill="#4B77BB" d="M283.8,263.1v4.5c0,5.4-2.7,8.5-7.9,8.5s-7.9-3.1-7.9-8.5V250c0-5.4,2.7-8.5,7.9-8.5s7.9,3.1,7.9,8.5v3.3
		h-5v-3.6c0-2.4-1.1-3.3-2.8-3.3s-2.8,0.9-2.8,3.3v18.3c0,2.4,1.1,3.3,2.8,3.3s2.8-0.9,2.8-3.3v-4.8H283.8z"/>
	<path fill="#4B77BB" d="M287.1,241.8h5.3v33.8h-5.3V241.8z"/>
	<path fill="#4B77BB" d="M303.4,241.4c5.2,0,7.8,3.1,7.8,8.5v1.1h-5v-1.4c0-2.4-1-3.3-2.7-3.3s-2.7,0.9-2.7,3.3
		c0,7,10.4,8.3,10.4,17.9c0,5.4-2.7,8.5-7.9,8.5s-7.9-3.1-7.9-8.5v-2.1h5v2.4c0,2.4,1.1,3.3,2.8,3.3s2.8-0.9,2.8-3.3
		c0-7-10.4-8.3-10.4-17.9C295.6,244.5,298.2,241.4,303.4,241.4z"/>
	<path fill="#4B77BB" d="M329.7,263.1v4.5c0,5.4-2.7,8.5-7.9,8.5s-7.9-3.1-7.9-8.5V250c0-5.4,2.7-8.5,7.9-8.5s7.9,3.1,7.9,8.5v3.3
		h-5v-3.6c0-2.4-1.1-3.3-2.8-3.3s-2.8,0.9-2.8,3.3v18.3c0,2.4,1.1,3.3,2.8,3.3s2.8-0.9,2.8-3.3v-4.8H329.7z"/>
	<path fill="#4B77BB" d="M332.5,250c0-5.4,2.9-8.5,8.1-8.5s8.1,3.1,8.1,8.5v17.6c0,5.4-2.9,8.5-8.1,8.5s-8.1-3.1-8.1-8.5V250z
		 M337.9,267.9c0,2.4,1.1,3.3,2.8,3.3s2.8-0.9,2.8-3.3v-18.3c0-2.4-1.1-3.3-2.8-3.3s-2.8,0.9-2.8,3.3V267.9z"/>
	<path fill="#191919" d="M359.6,241.8h8.4c5.3,0,7.9,2.9,7.9,8.4v17.1c0,5.4-2.6,8.4-7.9,8.4h-8.4V241.8z M364.9,246.7v24.2h3
		c1.7,0,2.7-0.9,2.7-3.3V250c0-2.4-1-3.3-2.7-3.3H364.9z"/>
	<path fill="#191919" d="M384.7,256.1h7.3v4.8h-7.3v9.9h9.2v4.8h-14.5v-33.8h14.5v4.8h-9.2V256.1z"/>
	<path fill="#191919" d="M405.1,269.4l4.1-27.6h4.9l-5.2,33.8h-7.9l-5.2-33.8h5.4L405.1,269.4z"/>
	<path fill="#191919" d="M421.9,256.1h7.3v4.8h-7.3v9.9h9.2v4.8h-14.5v-33.8h14.5v4.8h-9.2V256.1z"/>
	<path fill="#191919" d="M434.3,241.8h5.3v29h8.8v4.8h-14.1V241.8z"/>
	<path fill="#191919" d="M450.3,250c0-5.4,2.9-8.5,8.1-8.5s8.1,3.1,8.1,8.5v17.6c0,5.4-2.9,8.5-8.1,8.5s-8.1-3.1-8.1-8.5V250z
		 M455.6,267.9c0,2.4,1.1,3.3,2.8,3.3s2.8-0.9,2.8-3.3v-18.3c0-2.4-1.1-3.3-2.8-3.3s-2.8,0.9-2.8,3.3V267.9z"/>
	<path fill="#191919" d="M485.6,250.2v4.4c0,5.4-2.6,8.4-7.9,8.4h-2.5v12.7h-5.3v-33.8h7.8C483,241.8,485.6,244.8,485.6,250.2z
		 M475.2,246.7v11.5h2.5c1.7,0,2.6-0.8,2.6-3.2v-5.1c0-2.4-0.9-3.2-2.6-3.2H475.2z"/>
	<path fill="#191919" d="M493.4,256.1h7.3v4.8h-7.3v9.9h9.2v4.8h-14.5v-33.8h14.5v4.8h-9.2V256.1z"/>
	<path fill="#191919" d="M517,275.7c-0.3-0.9-0.5-1.4-0.5-4.2v-5.3c0-3.1-1.1-4.3-3.5-4.3h-1.8v13.8h-5.3v-33.8h8
		c5.5,0,7.9,2.6,7.9,7.8v2.7c0,3.5-1.1,5.8-3.5,6.9c2.7,1.1,3.5,3.7,3.5,7.2v5.2c0,1.6,0,2.9,0.6,4.1H517z M511.2,246.7v10.4h2.1
		c2,0,3.2-0.9,3.2-3.6v-3.3c0-2.4-0.8-3.5-2.7-3.5H511.2z"/>
	<path fill="#191919" d="M538.1,256.1h7.3v4.8h-7.3v9.9h9.2v4.8h-14.5v-33.8h14.5v4.8h-9.2V256.1z"/>
	<path fill="#191919" d="M568.3,241.8l-5.6,16.4l5.9,17.4h-5.6l-4.4-13.4l-4.4,13.4h-5l5.9-17.4l-5.6-16.4h5.5l4,12.5l4.1-12.5
		H568.3z"/>
	<path fill="#191919" d="M586.1,263.1v4.5c0,5.4-2.7,8.5-7.9,8.5s-7.9-3.1-7.9-8.5V250c0-5.4,2.7-8.5,7.9-8.5s7.9,3.1,7.9,8.5v3.3
		h-5v-3.6c0-2.4-1.1-3.3-2.8-3.3s-2.8,0.9-2.8,3.3v18.3c0,2.4,1.1,3.3,2.8,3.3s2.8-0.9,2.8-3.3v-4.8H586.1z"/>
	<path fill="#191919" d="M594.6,275.7h-5.3v-33.8h5.3v14.5h6v-14.5h5.4v33.8h-5.4v-14.5h-6V275.7z"/>
	<path fill="#191919" d="M627.2,275.7h-5.4l-0.9-6.1h-6.5l-0.9,6.1h-4.9l5.4-33.8h7.8L627.2,275.7z M615,264.9h5.1l-2.6-17.1
		L615,264.9z"/>
	<path fill="#191919" d="M634.4,251.2v24.5h-4.8v-33.8h6.7l5.5,20.3v-20.3h4.7v33.8H641L634.4,251.2z"/>
	<path fill="#191919" d="M658.2,256.8h7.4v10.7c0,5.4-2.7,8.5-7.9,8.5s-7.9-3.1-7.9-8.5V250c0-5.4,2.7-8.5,7.9-8.5s7.9,3.1,7.9,8.5
		v3.3h-5v-3.6c0-2.4-1.1-3.3-2.8-3.3s-2.8,0.9-2.8,3.3v18.3c0,2.4,1.1,3.3,2.8,3.3s2.8-0.9,2.8-3.3v-6.2h-2.4V256.8z"/>
	<path fill="#191919" d="M674.4,256.1h7.3v4.8h-7.3v9.9h9.2v4.8h-14.5v-33.8h14.5v4.8h-9.2V256.1z"/>
</g>
<g>
	<path fill="#191919" d="M126.7,281.6v17.8h-1.2v-17.8H126.7z"/>
	<path fill="#191919" d="M133.3,283.1v3.7h3.6v1h-3.6v8.2c0,1.6,0.5,2.6,1.8,2.6c0.7,0,1.1-0.1,1.5-0.2l0.2,1
		c-0.4,0.2-1,0.3-1.8,0.3c-0.9,0-1.7-0.3-2.2-0.9c-0.6-0.7-0.8-1.7-0.8-3v-8h-2.1v-1h2.1v-3.3L133.3,283.1z"/>
	<path fill="#191919" d="M140.7,281.3l-0.3,5.8h-0.8l-0.3-5.8H140.7z"/>
	<path fill="#191919" d="M143.9,297.7c0.7,0.4,1.7,0.9,2.8,0.9c2,0,3-1.1,3-2.4c0-1.4-0.8-2.1-2.7-2.9c-2.1-0.8-3.2-1.9-3.2-3.5
		c0-1.8,1.4-3.4,3.9-3.4c1.2,0,2.1,0.3,2.8,0.8l-0.5,1c-0.4-0.3-1.2-0.8-2.5-0.8c-1.6,0-2.5,1-2.5,2.2c0,1.3,0.9,1.9,2.6,2.6
		c2.1,0.8,3.3,1.8,3.3,3.7c0,2.2-1.7,3.6-4.3,3.6c-1.2,0-2.4-0.3-3.2-0.9L143.9,297.7z"/>
	<path fill="#191919" d="M160,280.7h1.2v18.7H160V280.7z"/>
	<path fill="#191919" d="M167.3,283.1c0,0.6-0.4,1.1-1.1,1.1c-0.6,0-1-0.5-1-1.1s0.4-1.1,1-1.1C166.9,282,167.3,282.5,167.3,283.1z
		 M165.6,299.4v-12.7h1.2v12.7H165.6z"/>
	<path fill="#191919" d="M172.4,292.8L172.4,292.8c0.4-0.4,0.9-1,1.3-1.4l4.5-4.7h1.5l-5.1,5.2l5.8,7.4h-1.5l-5.2-6.6l-1.3,1.4v5.3
		h-1.2v-18.7h1.2V292.8z"/>
	<path fill="#191919" d="M182.8,292.9c0,4.1,2.2,5.6,4.8,5.6c1.8,0,2.8-0.4,3.5-0.7l0.3,1c-0.5,0.3-1.8,0.8-4,0.8
		c-3.6,0-5.9-2.6-5.9-6.4c0-4.2,2.4-6.9,5.7-6.9c4.1,0,4.9,3.9,4.9,5.7c0,0.3,0,0.6-0.1,0.8H182.8z M190.8,291.9
		c0-1.8-0.7-4.5-3.8-4.5c-2.8,0-4,2.5-4.2,4.5H190.8z"/>
	<path fill="#191919" d="M203.4,282.7h-5.8v-1.1h12.8v1.1h-5.8v16.7h-1.3V282.7z"/>
	<path fill="#191919" d="M213.8,283.1c0,0.6-0.4,1.1-1.1,1.1c-0.6,0-1-0.5-1-1.1s0.4-1.1,1-1.1C213.4,282,213.8,282.5,213.8,283.1z
		 M212.2,299.4v-12.7h1.2v12.7H212.2z"/>
	<path fill="#191919" d="M217.7,289.8c0-1.2-0.1-2-0.1-3h1.2l0.1,2.3h0.1c0.7-1.4,2.3-2.6,4.4-2.6c1.2,0,4.4,0.6,4.4,5.4v7.6h-1.2
		v-7.5c0-2.3-0.9-4.4-3.5-4.4c-1.8,0-3.3,1.3-3.8,2.9c-0.1,0.3-0.2,0.7-0.2,1.1v7.8h-1.2V289.8z"/>
	<path fill="#191919" d="M241.9,280.7v15.8c0,0.9,0.1,2.1,0.1,3h-1.1l-0.1-2.4h-0.1c-0.7,1.4-2.2,2.7-4.5,2.7
		c-3.1,0-5.5-2.6-5.5-6.4c0-4.2,2.6-6.9,5.7-6.9c2.2,0,3.6,1.1,4.1,2.2h0.1v-8H241.9z M240.6,291.8c0-0.3-0.1-0.8-0.1-1.2
		c-0.4-1.7-1.9-3.1-4-3.1c-2.8,0-4.5,2.4-4.5,5.7c0,2.8,1.4,5.5,4.4,5.5c1.8,0,3.5-1.2,4.1-3.3c0.1-0.3,0.1-0.7,0.1-1.1V291.8z"/>
	<path fill="#191919" d="M246.3,292.9c0,4.1,2.2,5.6,4.8,5.6c1.8,0,2.8-0.4,3.5-0.7l0.3,1c-0.5,0.3-1.8,0.8-4,0.8
		c-3.6,0-5.9-2.6-5.9-6.4c0-4.2,2.4-6.9,5.7-6.9c4.1,0,4.9,3.9,4.9,5.7c0,0.3,0,0.6-0.1,0.8H246.3z M254.4,291.9
		c0-1.8-0.7-4.5-3.8-4.5c-2.8,0-4,2.5-4.2,4.5H254.4z"/>
	<path fill="#191919" d="M258.9,290.5c0-1.3-0.1-2.6-0.1-3.8h1.2l0.1,2.6h0.1c0.6-1.6,1.9-2.8,3.6-2.8c0.2,0,0.3,0,0.5,0.1v1.2
		c-0.2-0.1-0.4-0.1-0.6-0.1c-1.7,0-3,1.5-3.3,3.5c-0.1,0.4-0.1,0.8-0.1,1.2v7h-1.2V290.5z"/>
	<path fill="#191919" d="M278.3,299.4v-11.7h-1.8v-1h1.8v-0.7c0-2,0.4-3.5,1.4-4.6c0.8-0.8,1.8-1.1,2.8-1.1c0.8,0,1.5,0.2,1.9,0.4
		l-0.4,1c-0.3-0.2-0.8-0.4-1.6-0.4c-2.3,0-2.8,2.2-2.8,4.6v0.7h3.4v1h-3.4v11.7H278.3z"/>
	<path fill="#191919" d="M295.6,292.9c0,4.7-3.2,6.8-6.1,6.8c-3.3,0-5.8-2.6-5.8-6.5c0-4.4,2.8-6.7,6-6.7
		C293.2,286.5,295.6,289.1,295.6,292.9z M285,293.1c0,3.2,2,5.5,4.6,5.5c2.6,0,4.7-2.4,4.7-5.6c0-2.3-1.3-5.5-4.6-5.5
		C286.5,287.5,285,290.4,285,293.1z"/>
	<path fill="#191919" d="M298.8,290.5c0-1.3-0.1-2.6-0.1-3.8h1.2l0.1,2.6h0.1c0.6-1.6,1.9-2.8,3.6-2.8c0.2,0,0.3,0,0.5,0.1v1.2
		c-0.2-0.1-0.4-0.1-0.6-0.1c-1.7,0-3,1.5-3.3,3.5c-0.1,0.4-0.1,0.8-0.1,1.2v7h-1.2V290.5z"/>
	<path fill="#191919" d="M314.1,283.1v3.7h3.6v1h-3.6v8.2c0,1.6,0.5,2.6,1.8,2.6c0.7,0,1.1-0.1,1.5-0.2l0.2,1
		c-0.4,0.2-1,0.3-1.8,0.3c-0.9,0-1.7-0.3-2.2-0.9c-0.6-0.7-0.8-1.7-0.8-3v-8h-2.1v-1h2.1v-3.3L314.1,283.1z"/>
	<path fill="#191919" d="M327.4,299.4l-0.2-1.8h-0.1c-0.6,1-2,2.1-4,2.1c-2.5,0-3.7-1.8-3.7-3.5c0-2.9,2.6-4.7,7.7-4.6v-0.3
		c0-1.3-0.2-3.8-3.2-3.7c-1.1,0-2.3,0.3-3.2,0.9l-0.4-0.9c1.1-0.8,2.6-1.1,3.7-1.1c3.7,0,4.4,2.7,4.4,5v4.9c0,1,0.1,2,0.2,3H327.4z
		 M327.1,292.6c-2.8-0.1-6.4,0.3-6.4,3.4c0,1.8,1.2,2.6,2.5,2.6c2.1,0,3.3-1.3,3.7-2.5c0.1-0.3,0.1-0.5,0.1-0.8V292.6z"/>
	<path fill="#191919" d="M332.5,280.7h1.2v18.7h-1.2V280.7z"/>
	<path fill="#191919" d="M338.2,292.9c0,4.1,2.2,5.6,4.8,5.6c1.8,0,2.8-0.4,3.5-0.7l0.3,1c-0.5,0.3-1.8,0.8-4,0.8
		c-3.6,0-5.9-2.6-5.9-6.4c0-4.2,2.4-6.9,5.7-6.9c4.1,0,4.9,3.9,4.9,5.7c0,0.3,0,0.6-0.1,0.8H338.2z M346.3,291.9
		c0-1.8-0.7-4.5-3.8-4.5c-2.8,0-4,2.5-4.2,4.5H346.3z"/>
	<path fill="#191919" d="M350.8,289.8c0-1.2-0.1-2-0.1-3h1.2l0.1,2.3h0.1c0.7-1.4,2.3-2.6,4.4-2.6c1.2,0,4.4,0.6,4.4,5.4v7.6h-1.2
		v-7.5c0-2.3-0.9-4.4-3.5-4.4c-1.8,0-3.3,1.3-3.8,2.9c-0.1,0.3-0.2,0.7-0.2,1.1v7.8h-1.2V289.8z"/>
	<path fill="#191919" d="M366.7,283.1v3.7h3.6v1h-3.6v8.2c0,1.6,0.5,2.6,1.8,2.6c0.7,0,1.1-0.1,1.5-0.2l0.2,1
		c-0.4,0.2-1,0.3-1.8,0.3c-0.9,0-1.7-0.3-2.2-0.9c-0.6-0.7-0.8-1.7-0.8-3v-8h-2.1v-1h2.1v-3.3L366.7,283.1z"/>
	<path fill="#191919" d="M379,299.4v-11.7h-1.8v-1h1.8v-0.7c0-2,0.4-3.5,1.4-4.6c0.8-0.8,1.8-1.1,2.8-1.1c0.8,0,1.5,0.2,1.9,0.4
		l-0.4,1c-0.3-0.2-0.8-0.4-1.6-0.4c-2.3,0-2.8,2.2-2.8,4.6v0.7h3.4v1h-3.4v11.7H379z"/>
	<path fill="#191919" d="M385.8,290.5c0-1.3-0.1-2.6-0.1-3.8h1.2l0.1,2.6h0.1c0.6-1.6,1.9-2.8,3.6-2.8c0.2,0,0.3,0,0.5,0.1v1.2
		c-0.2-0.1-0.4-0.1-0.6-0.1c-1.7,0-3,1.5-3.3,3.5c-0.1,0.4-0.1,0.8-0.1,1.2v7h-1.2V290.5z"/>
	<path fill="#191919" d="M404.1,292.9c0,4.7-3.2,6.8-6.1,6.8c-3.3,0-5.8-2.6-5.8-6.5c0-4.4,2.8-6.7,6-6.7
		C401.7,286.5,404.1,289.1,404.1,292.9z M393.5,293.1c0,3.2,2,5.5,4.6,5.5c2.6,0,4.7-2.4,4.7-5.6c0-2.3-1.3-5.5-4.6-5.5
		C395,287.5,393.5,290.4,393.5,293.1z"/>
	<path fill="#191919" d="M407.3,289.8c0-1.2-0.1-2-0.1-3h1.2l0.1,2.2h0.1c0.8-1.5,2-2.5,4.1-2.5c1.8,0,3.1,1.2,3.6,2.8h0.1
		c0.4-0.8,0.8-1.3,1.3-1.7c0.8-0.7,1.7-1.1,3-1.1c1.2,0,4.1,0.7,4.1,5.5v7.5h-1.2v-7.3c0-2.8-1.1-4.5-3.3-4.5
		c-1.6,0-2.8,1.2-3.3,2.5c-0.1,0.4-0.2,0.8-0.2,1.2v8.1h-1.2v-7.9c0-2.3-1.1-4-3.1-4c-1.7,0-3,1.4-3.5,2.8c-0.1,0.3-0.2,0.8-0.2,1.2
		v7.8h-1.2V289.8z"/>
	<path fill="#191919" d="M436.4,283.1v3.7h3.6v1h-3.6v8.2c0,1.6,0.5,2.6,1.8,2.6c0.7,0,1.1-0.1,1.5-0.2l0.2,1
		c-0.4,0.2-1,0.3-1.8,0.3c-0.9,0-1.7-0.3-2.2-0.9c-0.6-0.7-0.8-1.7-0.8-3v-8H433v-1h2.1v-3.3L436.4,283.1z"/>
	<path fill="#191919" d="M442.8,280.7h1.2v8.3h0.1c0.4-0.7,1-1.4,1.7-1.8c0.7-0.4,1.6-0.7,2.6-0.7c1.2,0,4.4,0.6,4.4,5.3v7.6h-1.2
		v-7.5c0-2.3-0.9-4.4-3.5-4.4c-1.8,0-3.3,1.3-3.8,2.9c-0.1,0.4-0.2,0.7-0.2,1.2v7.8h-1.2V280.7z"/>
	<path fill="#191919" d="M457.2,292.9c0,4.1,2.2,5.6,4.8,5.6c1.8,0,2.8-0.4,3.5-0.7l0.3,1c-0.5,0.3-1.8,0.8-4,0.8
		c-3.6,0-5.9-2.6-5.9-6.4c0-4.2,2.4-6.9,5.7-6.9c4.1,0,4.9,3.9,4.9,5.7c0,0.3,0,0.6-0.1,0.8H457.2z M465.2,291.9
		c0-1.8-0.7-4.5-3.8-4.5c-2.8,0-4,2.5-4.2,4.5H465.2z"/>
	<path fill="#191919" d="M475.6,281.9c1-0.2,2.2-0.4,3.6-0.4c2.2,0,3.7,0.5,4.7,1.5c0.7,0.7,1.1,1.7,1.1,2.9c0,1.8-1.3,3.3-3.1,4
		v0.1c1.5,0.3,3.7,1.6,3.7,4.5c0,1.5-0.5,2.6-1.3,3.4c-1.2,1.2-3.1,1.7-5.6,1.7c-1.4,0-2.4-0.1-3.1-0.2V281.9z M476.8,289.4h2.6
		c2.6,0,4.2-1.5,4.2-3.5c0-2.5-1.9-3.4-4.5-3.4c-1.2,0-1.9,0.1-2.3,0.2V289.4z M476.8,298.3c0.5,0.1,1.3,0.1,2.2,0.1
		c2.7,0,5.3-1,5.3-4c0-2.8-2.4-4-5.2-4h-2.2V298.3z"/>
	<path fill="#191919" d="M495.8,299.4l-0.2-1.8h-0.1c-0.6,1-2,2.1-4,2.1c-2.5,0-3.7-1.8-3.7-3.5c0-2.9,2.6-4.7,7.7-4.6v-0.3
		c0-1.3-0.2-3.8-3.2-3.7c-1.1,0-2.3,0.3-3.2,0.9l-0.4-0.9c1.1-0.8,2.6-1.1,3.7-1.1c3.7,0,4.4,2.7,4.4,5v4.9c0,1,0.1,2,0.2,3H495.8z
		 M495.5,292.6c-2.8-0.1-6.4,0.3-6.4,3.4c0,1.8,1.2,2.6,2.5,2.6c2.1,0,3.3-1.3,3.7-2.5c0.1-0.3,0.1-0.5,0.1-0.8V292.6z"/>
	<path fill="#191919" d="M500.2,286.7l3.3,8.3c0.3,0.9,0.7,1.9,0.9,2.7h0.1c0.3-0.8,0.6-1.8,1-2.8l3.1-8.2h1.3l-3.8,9.4
		c-1.5,3.9-2.6,6.3-4.3,7.7c-1,0.8-1.9,1.2-2.2,1.3l-0.4-1.1c0.6-0.2,1.5-0.7,2.2-1.4c0.6-0.6,1.5-1.7,2.1-3.2
		c0.1-0.3,0.2-0.4,0.2-0.6s-0.1-0.3-0.2-0.6l-4.7-11.7H500.2z"/>
	<path fill="#191919" d="M520.2,293.2l-2.2,6.2h-1.3l6.4-17.8h1.2l6.4,17.8h-1.3l-2.2-6.2H520.2z M526.8,292.1l-2.2-5.9
		c-0.4-1.2-0.7-2.1-0.9-3.1h-0.1c-0.3,1-0.6,2-0.9,3.1l-2.2,6H526.8z"/>
	<path fill="#191919" d="M533.5,290.5c0-1.3-0.1-2.6-0.1-3.8h1.2l0.1,2.6h0.1c0.6-1.6,1.9-2.8,3.6-2.8c0.2,0,0.3,0,0.5,0.1v1.2
		c-0.2-0.1-0.4-0.1-0.6-0.1c-1.7,0-3,1.5-3.3,3.5c-0.1,0.4-0.1,0.8-0.1,1.2v7h-1.2V290.5z"/>
	<path fill="#191919" d="M541.1,292.9c0,4.1,2.2,5.6,4.8,5.6c1.8,0,2.8-0.4,3.5-0.7l0.3,1c-0.5,0.3-1.8,0.8-4,0.8
		c-3.6,0-5.9-2.6-5.9-6.4c0-4.2,2.4-6.9,5.7-6.9c4.1,0,4.9,3.9,4.9,5.7c0,0.3,0,0.6-0.1,0.8H541.1z M549.2,291.9
		c0-1.8-0.7-4.5-3.8-4.5c-2.8,0-4,2.5-4.2,4.5H549.2z"/>
	<path fill="#191919" d="M560.6,299.4l-0.2-1.8h-0.1c-0.6,1-2,2.1-4,2.1c-2.5,0-3.7-1.8-3.7-3.5c0-2.9,2.6-4.7,7.7-4.6v-0.3
		c0-1.3-0.2-3.8-3.2-3.7c-1.1,0-2.3,0.3-3.2,0.9l-0.4-0.9c1.1-0.8,2.6-1.1,3.7-1.1c3.7,0,4.4,2.7,4.4,5v4.9c0,1,0.1,2,0.2,3H560.6z
		 M560.4,292.6c-2.8-0.1-6.4,0.3-6.4,3.4c0,1.8,1.2,2.6,2.5,2.6c2.1,0,3.3-1.3,3.7-2.5c0.1-0.3,0.1-0.5,0.1-0.8V292.6z"/>
	<path fill="#191919" d="M573.2,283.1v3.7h3.6v1h-3.6v8.2c0,1.6,0.5,2.6,1.8,2.6c0.7,0,1.1-0.1,1.5-0.2l0.2,1
		c-0.4,0.2-1,0.3-1.8,0.3c-0.9,0-1.7-0.3-2.2-0.9c-0.6-0.7-0.8-1.7-0.8-3v-8h-2.1v-1h2.1v-3.3L573.2,283.1z"/>
	<path fill="#191919" d="M590.3,292.9c0,4.7-3.2,6.8-6.1,6.8c-3.3,0-5.8-2.6-5.8-6.5c0-4.4,2.8-6.7,6-6.7
		C587.9,286.5,590.3,289.1,590.3,292.9z M579.7,293.1c0,3.2,2,5.5,4.6,5.5c2.6,0,4.7-2.4,4.7-5.6c0-2.3-1.3-5.5-4.6-5.5
		C581.2,287.5,579.7,290.4,579.7,293.1z"/>
	<path fill="#191919" d="M614.3,291c-0.2-2.7-0.4-5.9-0.4-7.9h-0.1c-0.6,1.9-1.4,4-2.4,6.6l-3.7,9.7h-0.9l-3.5-9.4
		c-1-2.8-1.8-4.9-2.3-6.9H601c0,2.1-0.2,5.2-0.4,8.1l-0.6,8.2h-1.2l1.3-17.8h1.5l3.8,10.2c0.8,2.3,1.5,4.1,2,5.8h0.1
		c0.5-1.6,1.1-3.4,2-5.7l4-10.3h1.5l1.2,17.8h-1.2L614.3,291z"/>
	<path fill="#191919" d="M629.6,296.3c0,1.1,0.1,2.1,0.1,3.1h-1.2l-0.1-2.2h-0.1c-0.6,1.2-2.1,2.5-4.4,2.5c-1.6,0-4.3-0.8-4.3-5.6
		v-7.4h1.2v7.1c0,2.7,0.9,4.7,3.4,4.7c1.8,0,3.2-1.3,3.7-2.6c0.1-0.4,0.3-0.9,0.3-1.4v-7.9h1.2V296.3z"/>
	<path fill="#191919" d="M633.9,289.8c0-1.2-0.1-2-0.1-3h1.2l0.1,2.2h0.1c0.8-1.5,2-2.5,4.1-2.5c1.8,0,3.1,1.2,3.6,2.8h0.1
		c0.4-0.8,0.8-1.3,1.3-1.7c0.8-0.7,1.7-1.1,3-1.1c1.2,0,4.1,0.7,4.1,5.5v7.5h-1.2v-7.3c0-2.8-1.1-4.5-3.3-4.5
		c-1.6,0-2.8,1.2-3.3,2.5c-0.1,0.4-0.2,0.8-0.2,1.2v8.1H642v-7.9c0-2.3-1.1-4-3.1-4c-1.7,0-3,1.4-3.5,2.8c-0.1,0.3-0.2,0.8-0.2,1.2
		v7.8h-1.2V289.8z"/>
	<path fill="#191919" d="M655.4,299.4c0.1-0.9,0.1-2,0.1-3v-15.8h1.2v8.4h0.1c0.8-1.6,2.4-2.6,4.6-2.6c3.2,0,5.4,2.7,5.4,6.5
		c0,4.5-2.9,6.8-5.6,6.8c-2,0-3.5-0.8-4.5-2.6h-0.1l-0.1,2.3H655.4z M656.7,294.5c0,0.3,0.1,0.6,0.1,0.9c0.6,1.9,2.2,3.2,4.2,3.2
		c2.9,0,4.6-2.4,4.6-5.7c0-2.9-1.6-5.5-4.5-5.5c-1.8,0-3.6,1.3-4.2,3.4c-0.1,0.3-0.2,0.7-0.2,1.1V294.5z"/>
	<path fill="#191919" d="M676.9,299.4l-0.2-1.8h-0.1c-0.6,1-2,2.1-4,2.1c-2.5,0-3.7-1.8-3.7-3.5c0-2.9,2.6-4.7,7.7-4.6v-0.3
		c0-1.3-0.2-3.8-3.2-3.7c-1.1,0-2.3,0.3-3.2,0.9l-0.4-0.9c1.1-0.8,2.6-1.1,3.7-1.1c3.7,0,4.4,2.7,4.4,5v4.9c0,1,0.1,2,0.2,3H676.9z
		 M676.7,292.6c-2.8-0.1-6.4,0.3-6.4,3.4c0,1.8,1.2,2.6,2.5,2.6c2.1,0,3.3-1.3,3.7-2.5c0.1-0.3,0.1-0.5,0.1-0.8V292.6z"/>
	<path fill="#191919" d="M683.6,283.1c0,0.6-0.4,1.1-1.1,1.1c-0.6,0-1-0.5-1-1.1s0.4-1.1,1-1.1C683.2,282,683.6,282.5,683.6,283.1z
		 M682,299.4v-12.7h1.2v12.7H682z"/>
</g>
<g>
	<path fill="#191919" d="M266,281.7h-1.4V281h3.5v0.6h-1.4v5.2H266V281.7z"/>
	<path fill="#191919" d="M272.6,284.3c0-0.8-0.1-1.8-0.1-2.5h0c-0.2,0.7-0.4,1.4-0.6,2.2l-0.8,2.8h-0.5l-0.8-2.8
		c-0.2-0.8-0.4-1.6-0.5-2.3h0c0,0.7,0,1.7-0.1,2.6l-0.1,2.5h-0.6l0.3-5.8h0.8l0.8,2.8c0.2,0.7,0.4,1.4,0.5,2h0
		c0.1-0.6,0.3-1.2,0.5-2l0.8-2.8h0.8l0.3,5.8h-0.6L272.6,284.3z"/>
</g>
<g>
	<path fill="#191919" d="M687,243.8h-2.2v-1.9h6.3v1.9h-2.2v8.2H687V243.8z"/>
	<path fill="#191919" d="M698.8,248.1c0-1.2-0.1-2.7-0.1-4.1h0c-0.3,1.3-0.6,2.7-0.9,3.9l-1,3.9h-1.4l-0.9-3.9
		c-0.3-1.2-0.5-2.6-0.7-3.9h0c0,1.4-0.1,2.9-0.1,4.2l-0.1,3.8h-1.7l0.5-10.1h2.5l0.8,3.4c0.3,1.2,0.5,2.4,0.7,3.6h0
		c0.2-1.2,0.5-2.5,0.8-3.6l0.9-3.3h2.4l0.4,10.1H699L698.8,248.1z"/>
</g>
</svg>
