<?xml version="1.0" encoding="utf-8"?>
<!-- Generator: Adobe Illustrator 18.0.0, SVG Export Plug-In . SVG Version: 6.00 Build 0)  -->
<!DOCTYPE svg PUBLIC "-//W3C//DTD SVG 1.1//EN" "http://www.w3.org/Graphics/SVG/1.1/DTD/svg11.dtd">
<svg version="1.1" id="Layer_1" xmlns="http://www.w3.org/2000/svg" xmlns:xlink="http://www.w3.org/1999/xlink" x="0px" y="0px"
	 width="800px" height="500px" viewBox="0 0 800 500" enable-background="new 0 0 800 500" xml:space="preserve">
<g>
	<g display="none">
		<path display="inline" fill="#010202" d="M578.2,196.3c-3-2.2-9.2-3.9-17-1.2c-0.1,0-0.2,0.2-0.1,0.3c0,0.1,0.2,0.2,0.3,0.1
			c7.6-3.1,13.8-1,16.6,1.2c1.7,1.3,2.8,2.9,2.7,4.6c-0.3,5.1-7.2,7.4-13.3,7.4c-5.3,0-10.6-1.7-14-4.6c-1.1-0.9-1.8-1.7-2.2-2.4
			c0.4-0.3,0.7-0.7,0.8-1.1c0-0.1,0-0.2,0-0.3c0-0.4-0.1-0.7-0.4-0.8c-0.3-0.1-0.6,0-0.8,0.3c-0.1,0.2-0.2,0.4-0.2,0.7
			c0,0.3,0.1,0.7,0.4,1.1c-0.8,0.9-2.3,1.8-5.2,1.8c-4.2,0-7.5-1.5-10.7-3c-1.3-0.6-2.7-1.2-4.1-1.7c-6.6-2.4-12.2-1.2-12.2-1.2
			c-0.1,0-0.2,0.1-0.2,0.3c0,0.1,0.1,0.2,0.3,0.2c0.1,0,4.7-1.5,11.2,0.8c1.4,0.5,3.8,1.8,5.1,2.3c3.1,1.4,5.9,2.5,10.2,2.6
			c3.4,0.1,4.7-0.9,5.6-1.8c0.4,0.7,1.4,1.8,2.4,2.6c3.6,3,8.4,4.8,13.8,4.8c6.4,0,13.5-2.7,13.7-8.1
			C581,199.4,580,197.6,578.2,196.3z M550.9,200.7c0-0.2,0.1-0.4,0.2-0.5c0-0.1,0.2-0.2,0.3-0.1c0.1,0,0.2,0.1,0.2,0.4
			c0,0.1,0,0.1,0,0.2c-0.1,0.2-0.2,0.5-0.5,0.7C550.9,201.1,550.9,200.9,550.9,200.7z"/>
		<path display="inline" fill="#010202" d="M533.9,197c0,0,4-3.5,12.2-3.5c9.1,0,15.9,4.1,16.1,7.8c0.2,3.2-2.3,4.5-2.4,4.6
			c-0.1,0.1-0.1,0.2-0.1,0.3c0.1,0.1,0.2,0.1,0.3,0.1c0,0,2.6-1.6,2.4-5c-0.3-3.8-6.4-8-15.8-8c-8.4,0-13,3.3-13,3.4
			c-0.1,0.1-0.1,0.2,0,0.3C533.7,197.1,533.8,197.1,533.9,197z"/>
		<path display="inline" fill="#010202" d="M530.9,205.2c-9-3.8-14.3-2.8-14.3-2.8s4.4-0.2,9,1.4c4.6,1.6,13.4,6.5,20.6,6.5
			c7.2,0,11.3-2.7,11.3-2.7C547.1,211.9,539.5,208.9,530.9,205.2z"/>
	</g>
	<g display="none">
		<path display="inline" fill="#010202" d="M227.5,202.9c0.3,5.4,7.4,8.1,13.7,8.1c5.4,0,10.2-1.8,13.8-4.8c1-0.9,2-1.9,2.4-2.6
			c1,0.9,2.2,1.9,5.6,1.8c4.3-0.1,7.2-1.2,10.2-2.6c1.3-0.6,3.7-1.8,5.1-2.3c6.5-2.3,11.2-0.8,11.2-0.8c0.1,0,0.2,0,0.3-0.2
			c0-0.1,0-0.2-0.2-0.3c-0.1,0-5.6-1.2-12.2,1.2c-1.4,0.5-2.8,1.1-4.1,1.7c-3.2,1.5-6.5,3-10.7,3c-2.9,0-4.4-0.9-5.2-1.8
			c0.3-0.4,0.4-0.8,0.4-1.1c0-0.3-0.1-0.6-0.2-0.7c-0.2-0.3-0.5-0.4-0.8-0.3c-0.3,0.1-0.4,0.4-0.4,0.8c0,0.1,0,0.2,0,0.3
			c0.1,0.4,0.3,0.8,0.8,1.1c-0.3,0.6-1.1,1.5-2.2,2.4c-3.5,2.9-8.7,4.6-14,4.6c-6.2,0-13.1-2.3-13.3-7.4c-0.1-1.7,1-3.3,2.7-4.6
			c2.9-2.2,9-4.3,16.6-1.2c0.1,0,0.2,0,0.3-0.1c0-0.1,0-0.2-0.1-0.3c-7.8-2.7-14.1-1-17,1.2C228.4,199.3,227.4,201.1,227.5,202.9z
			 M257.4,203.1c-0.2-0.2-0.4-0.5-0.5-0.7c0-0.1,0-0.2,0-0.2c0-0.2,0.1-0.3,0.2-0.4c0.2,0,0.3,0.1,0.3,0.1c0.1,0.1,0.2,0.3,0.2,0.5
			C257.5,202.6,257.5,202.8,257.4,203.1z"/>
		<path display="inline" fill="#010202" d="M274.5,198.7c0,0-4-3.5-12.2-3.5c-9.1,0-15.9,4.1-16.1,7.8c-0.2,3.2,2.3,4.5,2.4,4.6
			c0.1,0.1,0.1,0.2,0.1,0.3c-0.1,0.1-0.2,0.1-0.3,0.1c0,0-2.6-1.6-2.4-5c0.3-3.8,6.4-8,15.7-8c8.4,0,13,3.3,13,3.4
			c0.1,0.1,0.1,0.2,0,0.3C274.7,198.8,274.6,198.8,274.5,198.7z"/>
		<path display="inline" fill="#010202" d="M277.5,207c9-3.8,14.3-2.8,14.3-2.8s-4.4-0.2-9,1.4c-4.6,1.6-13.4,6.5-20.6,6.5
			c-7.2,0-11.3-2.7-11.3-2.7C261.3,213.6,268.8,210.6,277.5,207z"/>
	</g>
	<g display="none">
		<path display="inline" fill="#010202" d="M470.7,327.1c-2.1-1.6-6.6-2.8-12.3-0.9c-0.1,0-0.1,0.1-0.1,0.2c0,0.1,0.1,0.1,0.2,0.1
			c5.5-2.3,9.9-0.7,12,0.8c1.2,0.9,2,2.1,1.9,3.3c-0.2,3.7-5.2,5.4-9.6,5.4c-3.8,0-7.6-1.3-10.1-3.3c-0.8-0.6-1.3-1.2-1.6-1.7
			c0.3-0.2,0.5-0.5,0.5-0.8c0-0.1,0-0.2,0-0.2c0-0.3-0.1-0.5-0.3-0.6c-0.2-0.1-0.4,0-0.6,0.2c-0.1,0.1-0.1,0.3-0.1,0.5
			c0,0.2,0.1,0.5,0.3,0.8c-0.6,0.6-1.7,1.3-3.8,1.3c-3,0-5.4-1.1-7.7-2.2c-0.9-0.4-1.9-0.9-2.9-1.3c-4.8-1.7-8.8-0.9-8.8-0.9
			c-0.1,0-0.1,0.1-0.1,0.2c0,0.1,0.1,0.1,0.2,0.1c0,0,3.4-1.1,8.1,0.6c1,0.4,2.8,1.3,3.7,1.7c2.2,1,4.3,1.8,7.4,1.9
			c2.4,0.1,3.4-0.7,4.1-1.3c0.3,0.5,1,1.3,1.7,1.9c2.6,2.1,6,3.5,9.9,3.5c4.6,0,9.7-1.9,9.9-5.8C472.7,329.4,472,328.1,470.7,327.1z
			 M451,330.3c0-0.2,0.1-0.3,0.1-0.4c0,0,0.1-0.1,0.2-0.1c0.1,0,0.1,0.1,0.1,0.3c0,0,0,0.1,0,0.2c0,0.2-0.2,0.3-0.3,0.5
			C451,330.6,451,330.5,451,330.3z"/>
		<path display="inline" fill="#010202" d="M438.8,327.7c0,0,2.9-2.5,8.8-2.5c6.6,0,11.4,3,11.6,5.6c0.2,2.3-1.7,3.3-1.7,3.3
			c-0.1,0-0.1,0.1-0.1,0.2c0,0.1,0.1,0.1,0.2,0.1c0,0,1.9-1.1,1.7-3.6c-0.2-2.8-4.6-5.7-11.3-5.7c-6,0-9.4,2.4-9.4,2.4
			c-0.1,0.1-0.1,0.1,0,0.2C438.6,327.7,438.7,327.7,438.8,327.7z"/>
		<path display="inline" fill="#010202" d="M436.6,333.6c-6.5-2.7-10.3-2-10.3-2s3.2-0.1,6.5,1c3.3,1.2,9.6,4.7,14.8,4.7
			c5.2,0,8.1-2,8.1-2C448.3,338.4,442.8,336.2,436.6,333.6z"/>
	</g>
	<g display="none">
		<path display="inline" fill="#010202" d="M327.4,331.9c0.2,3.9,5.3,5.8,9.9,5.8c3.9,0,7.4-1.3,9.9-3.5c0.7-0.6,1.5-1.4,1.7-1.9
			c0.7,0.7,1.6,1.4,4.1,1.3c3.1-0.1,5.2-0.9,7.4-1.9c0.9-0.4,2.7-1.3,3.7-1.7c4.7-1.7,8.1-0.6,8.1-0.6c0.1,0,0.2,0,0.2-0.1
			c0-0.1,0-0.2-0.1-0.2c0,0-4-0.9-8.8,0.9c-1,0.4-2,0.8-2.9,1.3c-2.3,1.1-4.7,2.2-7.7,2.2c-2.1,0-3.2-0.6-3.8-1.3
			c0.2-0.3,0.3-0.6,0.3-0.8c0-0.2-0.1-0.4-0.1-0.5c-0.1-0.2-0.3-0.3-0.6-0.2c-0.2,0.1-0.3,0.3-0.3,0.6c0,0.1,0,0.1,0,0.2
			c0,0.3,0.2,0.5,0.5,0.8c-0.2,0.5-0.8,1.1-1.6,1.7c-2.5,2.1-6.3,3.3-10.1,3.3c-4.4,0-9.4-1.7-9.6-5.4c-0.1-1.2,0.7-2.4,1.9-3.3
			c2.1-1.6,6.5-3.1,12-0.8c0.1,0,0.2,0,0.2-0.1c0-0.1,0-0.2-0.1-0.2c-5.6-1.9-10.1-0.7-12.3,0.9C328,329.4,327.4,330.6,327.4,331.9z
			 M348.9,332.1c-0.2-0.2-0.3-0.3-0.3-0.5c0-0.1,0-0.1,0-0.2c0-0.2,0.1-0.2,0.1-0.3c0.1,0,0.2,0.1,0.2,0.1c0.1,0.1,0.1,0.2,0.1,0.4
			C349,331.7,349,331.9,348.9,332.1z"/>
		<path display="inline" fill="#010202" d="M361.3,328.9c0,0-2.9-2.5-8.8-2.5c-6.6,0-11.4,3-11.6,5.6c-0.2,2.3,1.7,3.3,1.7,3.3
			c0.1,0,0.1,0.1,0.1,0.2c0,0.1-0.1,0.1-0.2,0.1c0,0-1.9-1.1-1.7-3.6c0.2-2.8,4.6-5.7,11.3-5.7c6,0,9.4,2.4,9.4,2.4
			c0.1,0.1,0.1,0.1,0,0.2C361.4,329,361.3,329,361.3,328.9z"/>
		<path display="inline" fill="#010202" d="M363.4,334.9c6.5-2.7,10.3-2,10.3-2s-3.2-0.1-6.5,1c-3.3,1.2-9.6,4.7-14.8,4.7
			c-5.2,0-8.1-2-8.1-2C351.7,339.7,357.2,337.5,363.4,334.9z"/>
	</g>
</g>
<g>
	<path fill="#4B77BB" d="M128.3,276.9c5.2,0,7.8,3.1,7.8,8.5v1.1h-5v-1.4c0-2.4-1-3.3-2.7-3.3c-1.7,0-2.7,0.9-2.7,3.3
		c0,7,10.4,8.3,10.4,17.9c0,5.4-2.7,8.5-7.9,8.5c-5.2,0-7.9-3.1-7.9-8.5v-2.1h5v2.4c0,2.4,1.1,3.3,2.8,3.3c1.7,0,2.8-0.9,2.8-3.3
		c0-7-10.4-8.3-10.4-17.9C120.4,280,123.1,276.9,128.3,276.9z"/>
	<path fill="#4B77BB" d="M156.4,311.1H151l-0.9-6.1h-6.5l-0.9,6.1h-4.9l5.4-33.8h7.8L156.4,311.1z M144.3,300.4h5.1l-2.6-17.1
		L144.3,300.4z"/>
	<path fill="#4B77BB" d="M163.6,286.6v24.5h-4.8v-33.8h6.7l5.5,20.3v-20.3h4.7v33.8h-5.5L163.6,286.6z"/>
	<path fill="#4B77BB" d="M192.3,292.3h6.9v4.8h-6.9v14H187v-33.8H201v4.8h-8.7V292.3z"/>
	<path fill="#4B77BB" d="M214.7,311.1c-0.3-0.9-0.5-1.4-0.5-4.2v-5.3c0-3.1-1.1-4.3-3.5-4.3h-1.8v13.8h-5.3v-33.8h8
		c5.5,0,7.9,2.6,7.9,7.8v2.7c0,3.5-1.1,5.8-3.5,6.9c2.7,1.1,3.5,3.7,3.5,7.2v5.2c0,1.6,0,2.9,0.6,4.1H214.7z M208.9,282.1v10.4h2.1
		c2,0,3.2-0.9,3.2-3.6v-3.3c0-2.4-0.8-3.5-2.7-3.5H208.9z"/>
	<path fill="#4B77BB" d="M240.2,311.1h-5.4L234,305h-6.5l-0.9,6.1h-4.9l5.4-33.8h7.8L240.2,311.1z M228.1,300.4h5.1l-2.6-17.1
		L228.1,300.4z"/>
	<path fill="#4B77BB" d="M247.4,286.6v24.5h-4.8v-33.8h6.7l5.5,20.3v-20.3h4.7v33.8h-5.5L247.4,286.6z"/>
	<path fill="#4B77BB" d="M278.8,298.5v4.5c0,5.4-2.7,8.5-7.9,8.5s-7.9-3.1-7.9-8.5v-17.6c0-5.4,2.7-8.5,7.9-8.5s7.9,3.1,7.9,8.5v3.3
		h-5v-3.6c0-2.4-1.1-3.3-2.8-3.3s-2.8,0.9-2.8,3.3v18.3c0,2.4,1.1,3.3,2.8,3.3s2.8-0.9,2.8-3.3v-4.8H278.8z"/>
	<path fill="#4B77BB" d="M282,277.3h5.3v33.8H282V277.3z"/>
	<path fill="#4B77BB" d="M298.3,276.9c5.2,0,7.8,3.1,7.8,8.5v1.1h-5v-1.4c0-2.4-1-3.3-2.7-3.3s-2.7,0.9-2.7,3.3
		c0,7,10.4,8.3,10.4,17.9c0,5.4-2.7,8.5-7.9,8.5s-7.9-3.1-7.9-8.5v-2.1h5v2.4c0,2.4,1.1,3.3,2.8,3.3s2.8-0.9,2.8-3.3
		c0-7-10.4-8.3-10.4-17.9C290.5,280,293.2,276.9,298.3,276.9z"/>
	<path fill="#4B77BB" d="M324.7,298.5v4.5c0,5.4-2.7,8.5-7.9,8.5s-7.9-3.1-7.9-8.5v-17.6c0-5.4,2.7-8.5,7.9-8.5s7.9,3.1,7.9,8.5v3.3
		h-5v-3.6c0-2.4-1.1-3.3-2.8-3.3s-2.8,0.9-2.8,3.3v18.3c0,2.4,1.1,3.3,2.8,3.3s2.8-0.9,2.8-3.3v-4.8H324.7z"/>
	<path fill="#4B77BB" d="M327.5,285.4c0-5.4,2.9-8.5,8.1-8.5s8.1,3.1,8.1,8.5V303c0,5.4-2.9,8.5-8.1,8.5s-8.1-3.1-8.1-8.5V285.4z
		 M332.8,303.3c0,2.4,1.1,3.3,2.8,3.3s2.8-0.9,2.8-3.3v-18.3c0-2.4-1.1-3.3-2.8-3.3s-2.8,0.9-2.8,3.3V303.3z"/>
	<path fill="#8B8C8C" d="M354.6,277.3h8.4c5.3,0,7.9,2.9,7.9,8.4v17.1c0,5.4-2.6,8.4-7.9,8.4h-8.4V277.3z M359.9,282.1v24.2h3
		c1.7,0,2.7-0.9,2.7-3.3v-17.6c0-2.4-1-3.3-2.7-3.3H359.9z"/>
	<path fill="#8B8C8C" d="M379.6,291.5h7.3v4.8h-7.3v9.9h9.2v4.8h-14.5v-33.8h14.5v4.8h-9.2V291.5z"/>
	<path fill="#8B8C8C" d="M400.1,304.9l4.1-27.6h4.9l-5.2,33.8h-7.9l-5.2-33.8h5.4L400.1,304.9z"/>
	<path fill="#8B8C8C" d="M416.8,291.5h7.3v4.8h-7.3v9.9h9.2v4.8h-14.5v-33.8H426v4.8h-9.2V291.5z"/>
	<path fill="#8B8C8C" d="M429.3,277.3h5.3v29h8.8v4.8h-14.1V277.3z"/>
	<path fill="#8B8C8C" d="M445.2,285.4c0-5.4,2.9-8.5,8.1-8.5s8.1,3.1,8.1,8.5V303c0,5.4-2.9,8.5-8.1,8.5s-8.1-3.1-8.1-8.5V285.4z
		 M450.6,303.3c0,2.4,1.1,3.3,2.8,3.3s2.8-0.9,2.8-3.3v-18.3c0-2.4-1.1-3.3-2.8-3.3s-2.8,0.9-2.8,3.3V303.3z"/>
	<path fill="#8B8C8C" d="M480.6,285.6v4.4c0,5.4-2.6,8.4-7.9,8.4h-2.5v12.7h-5.3v-33.8h7.8C478,277.3,480.6,280.2,480.6,285.6z
		 M470.1,282.1v11.5h2.5c1.7,0,2.6-0.8,2.6-3.2v-5.1c0-2.4-0.9-3.2-2.6-3.2H470.1z"/>
	<path fill="#8B8C8C" d="M488.4,291.5h7.3v4.8h-7.3v9.9h9.2v4.8H483v-33.8h14.5v4.8h-9.2V291.5z"/>
	<path fill="#8B8C8C" d="M511.9,311.1c-0.3-0.9-0.5-1.4-0.5-4.2v-5.3c0-3.1-1.1-4.3-3.5-4.3h-1.8v13.8h-5.3v-33.8h8
		c5.5,0,7.9,2.6,7.9,7.8v2.7c0,3.5-1.1,5.8-3.5,6.9c2.7,1.1,3.5,3.7,3.5,7.2v5.2c0,1.6,0,2.9,0.6,4.1H511.9z M506.1,282.1v10.4h2.1
		c2,0,3.2-0.9,3.2-3.6v-3.3c0-2.4-0.8-3.5-2.7-3.5H506.1z"/>
	<path fill="#8B8C8C" d="M533.1,291.5h7.3v4.8h-7.3v9.9h9.2v4.8h-14.5v-33.8h14.5v4.8h-9.2V291.5z"/>
	<path fill="#8B8C8C" d="M563.3,277.3l-5.6,16.4l5.9,17.4h-5.6l-4.4-13.4l-4.4,13.4h-5l5.9-17.4l-5.6-16.4h5.5l4,12.5l4.1-12.5
		H563.3z"/>
	<path fill="#8B8C8C" d="M581,298.5v4.5c0,5.4-2.7,8.5-7.9,8.5s-7.9-3.1-7.9-8.5v-17.6c0-5.4,2.7-8.5,7.9-8.5s7.9,3.1,7.9,8.5v3.3
		h-5v-3.6c0-2.4-1.1-3.3-2.8-3.3s-2.8,0.9-2.8,3.3v18.3c0,2.4,1.1,3.3,2.8,3.3s2.8-0.9,2.8-3.3v-4.8H581z"/>
	<path fill="#8B8C8C" d="M589.6,311.1h-5.3v-33.8h5.3v14.5h6v-14.5h5.4v33.8h-5.4v-14.5h-6V311.1z"/>
	<path fill="#8B8C8C" d="M622.1,311.1h-5.4l-0.9-6.1h-6.5l-0.9,6.1h-4.9l5.4-33.8h7.8L622.1,311.1z M610,300.4h5.1l-2.6-17.1
		L610,300.4z"/>
	<path fill="#8B8C8C" d="M629.3,286.6v24.5h-4.8v-33.8h6.7l5.5,20.3v-20.3h4.7v33.8h-5.5L629.3,286.6z"/>
	<path fill="#8B8C8C" d="M653.2,292.3h7.4V303c0,5.4-2.7,8.5-7.9,8.5s-7.9-3.1-7.9-8.5v-17.6c0-5.4,2.7-8.5,7.9-8.5s7.9,3.1,7.9,8.5
		v3.3h-5v-3.6c0-2.4-1.1-3.3-2.8-3.3s-2.8,0.9-2.8,3.3v18.3c0,2.4,1.1,3.3,2.8,3.3s2.8-0.9,2.8-3.3v-6.2h-2.4V292.3z"/>
	<path fill="#8B8C8C" d="M669.4,291.5h7.3v4.8h-7.3v9.9h9.2v4.8h-14.5v-33.8h14.5v4.8h-9.2V291.5z"/>
</g>
<g>
	<path fill="#8B8C8C" d="M121.7,317.1v17.8h-1.2v-17.8H121.7z"/>
	<path fill="#8B8C8C" d="M128.3,318.5v3.7h3.6v1h-3.6v8.2c0,1.6,0.5,2.6,1.8,2.6c0.7,0,1.1-0.1,1.5-0.2l0.2,1
		c-0.4,0.2-1,0.3-1.8,0.3c-0.9,0-1.7-0.3-2.2-0.9c-0.6-0.7-0.8-1.7-0.8-3v-8h-2.1v-1h2.1v-3.3L128.3,318.5z"/>
	<path fill="#8B8C8C" d="M135.7,316.8l-0.3,5.8h-0.8l-0.3-5.8H135.7z"/>
	<path fill="#8B8C8C" d="M138.9,333.2c0.7,0.4,1.7,0.9,2.8,0.9c2,0,3-1.1,3-2.4c0-1.4-0.8-2.1-2.7-2.9c-2.1-0.8-3.2-1.9-3.2-3.5
		c0-1.8,1.4-3.4,3.9-3.4c1.2,0,2.1,0.3,2.8,0.8l-0.5,1c-0.4-0.3-1.2-0.8-2.5-0.8c-1.6,0-2.5,1-2.5,2.2c0,1.3,0.9,1.9,2.6,2.6
		c2.1,0.8,3.3,1.8,3.3,3.7c0,2.2-1.7,3.6-4.3,3.6c-1.2,0-2.4-0.3-3.2-0.9L138.9,333.2z"/>
	<path fill="#8B8C8C" d="M155,316.1h1.2v18.7H155V316.1z"/>
	<path fill="#8B8C8C" d="M162.2,318.6c0,0.6-0.4,1.1-1.1,1.1c-0.6,0-1-0.5-1-1.1s0.4-1.1,1-1.1C161.8,317.5,162.2,318,162.2,318.6z
		 M160.6,334.8v-12.7h1.2v12.7H160.6z"/>
	<path fill="#8B8C8C" d="M167.3,328.3L167.3,328.3c0.4-0.4,0.9-1,1.3-1.4l4.5-4.7h1.5l-5.1,5.2l5.8,7.4h-1.5l-5.2-6.6l-1.3,1.4v5.3
		h-1.2v-18.7h1.2V328.3z"/>
	<path fill="#8B8C8C" d="M177.7,328.4c0,4.1,2.2,5.6,4.8,5.6c1.8,0,2.8-0.4,3.5-0.7l0.3,1c-0.5,0.3-1.8,0.8-4,0.8
		c-3.6,0-5.9-2.6-5.9-6.4c0-4.2,2.4-6.9,5.7-6.9c4.1,0,4.9,3.9,4.9,5.7c0,0.3,0,0.6-0.1,0.8H177.7z M185.8,327.4
		c0-1.8-0.7-4.5-3.8-4.5c-2.8,0-4,2.5-4.2,4.5H185.8z"/>
	<path fill="#8B8C8C" d="M198.4,318.1h-5.8v-1.1h12.8v1.1h-5.8v16.7h-1.3V318.1z"/>
	<path fill="#8B8C8C" d="M208.7,318.6c0,0.6-0.4,1.1-1.1,1.1c-0.6,0-1-0.5-1-1.1s0.4-1.1,1-1.1C208.3,317.5,208.7,318,208.7,318.6z
		 M207.1,334.8v-12.7h1.2v12.7H207.1z"/>
	<path fill="#8B8C8C" d="M212.6,325.2c0-1.2-0.1-2-0.1-3h1.2l0.1,2.3h0.1c0.7-1.4,2.3-2.6,4.4-2.6c1.2,0,4.4,0.6,4.4,5.4v7.6h-1.2
		v-7.5c0-2.3-0.9-4.4-3.5-4.4c-1.8,0-3.3,1.3-3.8,2.9c-0.1,0.3-0.2,0.7-0.2,1.1v7.8h-1.2V325.2z"/>
	<path fill="#8B8C8C" d="M236.8,316.1v15.8c0,0.9,0.1,2.1,0.1,3h-1.1l-0.1-2.4h-0.1c-0.7,1.4-2.2,2.7-4.5,2.7
		c-3.1,0-5.5-2.6-5.5-6.4c0-4.2,2.6-6.9,5.7-6.9c2.2,0,3.6,1.1,4.1,2.2h0.1v-8H236.8z M235.6,327.2c0-0.3-0.1-0.8-0.1-1.2
		c-0.4-1.7-1.9-3.1-4-3.1c-2.8,0-4.5,2.4-4.5,5.7c0,2.8,1.4,5.5,4.4,5.5c1.8,0,3.5-1.2,4.1-3.3c0.1-0.3,0.1-0.7,0.1-1.1V327.2z"/>
	<path fill="#8B8C8C" d="M241.3,328.4c0,4.1,2.2,5.6,4.8,5.6c1.8,0,2.8-0.4,3.5-0.7l0.3,1c-0.5,0.3-1.8,0.8-4,0.8
		c-3.6,0-5.9-2.6-5.9-6.4c0-4.2,2.4-6.9,5.7-6.9c4.1,0,4.9,3.9,4.9,5.7c0,0.3,0,0.6-0.1,0.8H241.3z M249.3,327.4
		c0-1.8-0.7-4.5-3.8-4.5c-2.8,0-4,2.5-4.2,4.5H249.3z"/>
	<path fill="#8B8C8C" d="M253.9,326c0-1.3-0.1-2.6-0.1-3.8h1.2l0.1,2.6h0.1c0.6-1.6,1.9-2.8,3.6-2.8c0.2,0,0.3,0,0.5,0.1v1.2
		c-0.2-0.1-0.4-0.1-0.6-0.1c-1.7,0-3,1.5-3.3,3.5c-0.1,0.4-0.1,0.8-0.1,1.2v7h-1.2V326z"/>
	<path fill="#8B8C8C" d="M273.3,334.8v-11.7h-1.8v-1h1.8v-0.7c0-2,0.4-3.5,1.4-4.6c0.8-0.8,1.8-1.1,2.8-1.1c0.8,0,1.5,0.2,1.9,0.4
		l-0.4,1c-0.3-0.2-0.8-0.4-1.6-0.4c-2.3,0-2.8,2.2-2.8,4.6v0.7h3.4v1h-3.4v11.7H273.3z"/>
	<path fill="#8B8C8C" d="M290.5,328.4c0,4.7-3.2,6.8-6.1,6.8c-3.3,0-5.8-2.6-5.8-6.5c0-4.4,2.8-6.7,6-6.7
		C288.2,321.9,290.5,324.5,290.5,328.4z M279.9,328.5c0,3.2,2,5.5,4.6,5.5c2.6,0,4.7-2.4,4.7-5.6c0-2.3-1.3-5.5-4.6-5.5
		C281.4,322.9,279.9,325.8,279.9,328.5z"/>
	<path fill="#8B8C8C" d="M293.7,326c0-1.3-0.1-2.6-0.1-3.8h1.2l0.1,2.6h0.1c0.6-1.6,1.9-2.8,3.6-2.8c0.2,0,0.3,0,0.5,0.1v1.2
		c-0.2-0.1-0.4-0.1-0.6-0.1c-1.7,0-3,1.5-3.3,3.5c-0.1,0.4-0.1,0.8-0.1,1.2v7h-1.2V326z"/>
	<path fill="#8B8C8C" d="M309,318.5v3.7h3.6v1H309v8.2c0,1.6,0.5,2.6,1.8,2.6c0.7,0,1.1-0.1,1.5-0.2l0.2,1c-0.4,0.2-1,0.3-1.8,0.3
		c-0.9,0-1.7-0.3-2.2-0.9c-0.6-0.7-0.8-1.7-0.8-3v-8h-2.1v-1h2.1v-3.3L309,318.5z"/>
	<path fill="#8B8C8C" d="M322.4,334.8l-0.2-1.8h-0.1c-0.6,1-2,2.1-4,2.1c-2.5,0-3.7-1.8-3.7-3.5c0-2.9,2.6-4.7,7.7-4.6v-0.3
		c0-1.3-0.2-3.8-3.2-3.7c-1.1,0-2.3,0.3-3.2,0.9l-0.4-0.9c1.1-0.8,2.6-1.1,3.7-1.1c3.7,0,4.4,2.7,4.4,5v4.9c0,1,0.1,2,0.2,3H322.4z
		 M322.1,328.1c-2.8-0.1-6.4,0.3-6.4,3.4c0,1.8,1.2,2.6,2.5,2.6c2.1,0,3.3-1.3,3.7-2.5c0.1-0.3,0.1-0.5,0.1-0.8V328.1z"/>
	<path fill="#8B8C8C" d="M327.4,316.1h1.2v18.7h-1.2V316.1z"/>
	<path fill="#8B8C8C" d="M333.2,328.4c0,4.1,2.2,5.6,4.8,5.6c1.8,0,2.8-0.4,3.5-0.7l0.3,1c-0.5,0.3-1.8,0.8-4,0.8
		c-3.6,0-5.9-2.6-5.9-6.4c0-4.2,2.4-6.9,5.7-6.9c4.1,0,4.9,3.9,4.9,5.7c0,0.3,0,0.6-0.1,0.8H333.2z M341.3,327.4
		c0-1.8-0.7-4.5-3.8-4.5c-2.8,0-4,2.5-4.2,4.5H341.3z"/>
	<path fill="#8B8C8C" d="M345.8,325.2c0-1.2-0.1-2-0.1-3h1.2l0.1,2.3h0.1c0.7-1.4,2.3-2.6,4.4-2.6c1.2,0,4.4,0.6,4.4,5.4v7.6h-1.2
		v-7.5c0-2.3-0.9-4.4-3.5-4.4c-1.8,0-3.3,1.3-3.8,2.9c-0.1,0.3-0.2,0.7-0.2,1.1v7.8h-1.2V325.2z"/>
	<path fill="#8B8C8C" d="M361.7,318.5v3.7h3.6v1h-3.6v8.2c0,1.6,0.5,2.6,1.8,2.6c0.7,0,1.1-0.1,1.5-0.2l0.2,1
		c-0.4,0.2-1,0.3-1.8,0.3c-0.9,0-1.7-0.3-2.2-0.9c-0.6-0.7-0.8-1.7-0.8-3v-8h-2.1v-1h2.1v-3.3L361.7,318.5z"/>
	<path fill="#8B8C8C" d="M373.9,334.8v-11.7h-1.8v-1h1.8v-0.7c0-2,0.4-3.5,1.4-4.6c0.8-0.8,1.8-1.1,2.8-1.1c0.8,0,1.5,0.2,1.9,0.4
		l-0.4,1c-0.3-0.2-0.8-0.4-1.6-0.4c-2.3,0-2.8,2.2-2.8,4.6v0.7h3.4v1h-3.4v11.7H373.9z"/>
	<path fill="#8B8C8C" d="M380.8,326c0-1.3-0.1-2.6-0.1-3.8h1.2l0.1,2.6h0.1c0.6-1.6,1.9-2.8,3.6-2.8c0.2,0,0.3,0,0.5,0.1v1.2
		c-0.2-0.1-0.4-0.1-0.6-0.1c-1.7,0-3,1.5-3.3,3.5c-0.1,0.4-0.1,0.8-0.1,1.2v7h-1.2V326z"/>
	<path fill="#8B8C8C" d="M399.1,328.4c0,4.7-3.2,6.8-6.1,6.8c-3.3,0-5.8-2.6-5.8-6.5c0-4.4,2.8-6.7,6-6.7
		C396.7,321.9,399.1,324.5,399.1,328.4z M388.5,328.5c0,3.2,2,5.5,4.6,5.5c2.6,0,4.7-2.4,4.7-5.6c0-2.3-1.3-5.5-4.6-5.5
		C389.9,322.9,388.5,325.8,388.5,328.5z"/>
	<path fill="#8B8C8C" d="M402.3,325.2c0-1.2-0.1-2-0.1-3h1.2l0.1,2.2h0.1c0.8-1.5,2-2.5,4.1-2.5c1.8,0,3.1,1.2,3.6,2.8h0.1
		c0.4-0.8,0.8-1.3,1.3-1.7c0.8-0.7,1.7-1.1,3-1.1c1.2,0,4.1,0.7,4.1,5.5v7.5h-1.2v-7.3c0-2.8-1.1-4.5-3.3-4.5
		c-1.6,0-2.8,1.2-3.3,2.5c-0.1,0.4-0.2,0.8-0.2,1.2v8.1h-1.2v-7.9c0-2.3-1.1-4-3.1-4c-1.7,0-3,1.4-3.5,2.8c-0.1,0.3-0.2,0.8-0.2,1.2
		v7.8h-1.2V325.2z"/>
	<path fill="#8B8C8C" d="M431.4,318.5v3.7h3.6v1h-3.6v8.2c0,1.6,0.5,2.6,1.8,2.6c0.7,0,1.1-0.1,1.5-0.2l0.2,1
		c-0.4,0.2-1,0.3-1.8,0.3c-0.9,0-1.7-0.3-2.2-0.9c-0.6-0.7-0.8-1.7-0.8-3v-8H428v-1h2.1v-3.3L431.4,318.5z"/>
	<path fill="#8B8C8C" d="M437.8,316.1h1.2v8.3h0.1c0.4-0.7,1-1.4,1.7-1.8c0.7-0.4,1.6-0.7,2.6-0.7c1.2,0,4.4,0.6,4.4,5.3v7.6h-1.2
		v-7.5c0-2.3-0.9-4.4-3.5-4.4c-1.8,0-3.3,1.3-3.8,2.9c-0.1,0.4-0.2,0.7-0.2,1.2v7.8h-1.2V316.1z"/>
	<path fill="#8B8C8C" d="M452.1,328.4c0,4.1,2.2,5.6,4.8,5.6c1.8,0,2.8-0.4,3.5-0.7l0.3,1c-0.5,0.3-1.8,0.8-4,0.8
		c-3.6,0-5.9-2.6-5.9-6.4c0-4.2,2.4-6.9,5.7-6.9c4.1,0,4.9,3.9,4.9,5.7c0,0.3,0,0.6-0.1,0.8H452.1z M460.2,327.4
		c0-1.8-0.7-4.5-3.8-4.5c-2.8,0-4,2.5-4.2,4.5H460.2z"/>
	<path fill="#8B8C8C" d="M470.5,317.3c1-0.2,2.2-0.4,3.6-0.4c2.2,0,3.7,0.5,4.7,1.5c0.7,0.7,1.1,1.7,1.1,2.9c0,1.8-1.3,3.3-3.1,4
		v0.1c1.5,0.3,3.7,1.6,3.7,4.5c0,1.5-0.5,2.6-1.3,3.4c-1.2,1.2-3.1,1.7-5.6,1.7c-1.4,0-2.4-0.1-3.1-0.2V317.3z M471.7,324.9h2.6
		c2.6,0,4.2-1.5,4.2-3.5c0-2.5-1.9-3.4-4.5-3.4c-1.2,0-1.9,0.1-2.3,0.2V324.9z M471.7,333.8c0.5,0.1,1.3,0.1,2.2,0.1
		c2.7,0,5.3-1,5.3-4c0-2.8-2.4-4-5.2-4h-2.2V333.8z"/>
	<path fill="#8B8C8C" d="M490.7,334.8l-0.2-1.8h-0.1c-0.6,1-2,2.1-4,2.1c-2.5,0-3.7-1.8-3.7-3.5c0-2.9,2.6-4.7,7.7-4.6v-0.3
		c0-1.3-0.2-3.8-3.2-3.7c-1.1,0-2.3,0.3-3.2,0.9l-0.4-0.9c1.1-0.8,2.6-1.1,3.7-1.1c3.7,0,4.4,2.7,4.4,5v4.9c0,1,0.1,2,0.2,3H490.7z
		 M490.4,328.1c-2.8-0.1-6.4,0.3-6.4,3.4c0,1.8,1.2,2.6,2.5,2.6c2.1,0,3.3-1.3,3.7-2.5c0.1-0.3,0.1-0.5,0.1-0.8V328.1z"/>
	<path fill="#8B8C8C" d="M495.1,322.2l3.3,8.3c0.3,0.9,0.7,1.9,0.9,2.7h0.1c0.3-0.8,0.6-1.8,1-2.8l3.1-8.2h1.3l-3.8,9.4
		c-1.5,3.9-2.6,6.3-4.3,7.7c-1,0.8-1.9,1.2-2.2,1.3l-0.4-1.1c0.6-0.2,1.5-0.7,2.2-1.4c0.6-0.6,1.5-1.7,2.1-3.2
		c0.1-0.3,0.2-0.4,0.2-0.6s-0.1-0.3-0.2-0.6l-4.7-11.7H495.1z"/>
	<path fill="#8B8C8C" d="M515.1,328.6l-2.2,6.2h-1.3l6.4-17.8h1.2l6.4,17.8h-1.3l-2.2-6.2H515.1z M521.8,327.6l-2.2-5.9
		c-0.4-1.2-0.7-2.1-0.9-3.1h-0.1c-0.3,1-0.6,2-0.9,3.1l-2.2,6H521.8z"/>
	<path fill="#8B8C8C" d="M528.4,326c0-1.3-0.1-2.6-0.1-3.8h1.2l0.1,2.6h0.1c0.6-1.6,1.9-2.8,3.6-2.8c0.2,0,0.3,0,0.5,0.1v1.2
		c-0.2-0.1-0.4-0.1-0.6-0.1c-1.7,0-3,1.5-3.3,3.5c-0.1,0.4-0.1,0.8-0.1,1.2v7h-1.2V326z"/>
	<path fill="#8B8C8C" d="M536.1,328.4c0,4.1,2.2,5.6,4.8,5.6c1.8,0,2.8-0.4,3.5-0.7l0.3,1c-0.5,0.3-1.8,0.8-4,0.8
		c-3.6,0-5.9-2.6-5.9-6.4c0-4.2,2.4-6.9,5.7-6.9c4.1,0,4.9,3.9,4.9,5.7c0,0.3,0,0.6-0.1,0.8H536.1z M544.1,327.4
		c0-1.8-0.7-4.5-3.8-4.5c-2.8,0-4,2.5-4.2,4.5H544.1z"/>
	<path fill="#8B8C8C" d="M555.6,334.8l-0.2-1.8h-0.1c-0.6,1-2,2.1-4,2.1c-2.5,0-3.7-1.8-3.7-3.5c0-2.9,2.6-4.7,7.7-4.6v-0.3
		c0-1.3-0.2-3.8-3.2-3.7c-1.1,0-2.3,0.3-3.2,0.9l-0.4-0.9c1.1-0.8,2.6-1.1,3.7-1.1c3.7,0,4.4,2.7,4.4,5v4.9c0,1,0.1,2,0.2,3H555.6z
		 M555.3,328.1c-2.8-0.1-6.4,0.3-6.4,3.4c0,1.8,1.2,2.6,2.5,2.6c2.1,0,3.3-1.3,3.7-2.5c0.1-0.3,0.1-0.5,0.1-0.8V328.1z"/>
	<path fill="#8B8C8C" d="M568.2,318.5v3.7h3.6v1h-3.6v8.2c0,1.6,0.5,2.6,1.8,2.6c0.7,0,1.1-0.1,1.5-0.2l0.2,1
		c-0.4,0.2-1,0.3-1.8,0.3c-0.9,0-1.7-0.3-2.2-0.9c-0.6-0.7-0.8-1.7-0.8-3v-8h-2.1v-1h2.1v-3.3L568.2,318.5z"/>
	<path fill="#8B8C8C" d="M585.2,328.4c0,4.7-3.2,6.8-6.1,6.8c-3.3,0-5.8-2.6-5.8-6.5c0-4.4,2.8-6.7,6-6.7
		C582.8,321.9,585.2,324.5,585.2,328.4z M574.6,328.5c0,3.2,2,5.5,4.6,5.5c2.6,0,4.7-2.4,4.7-5.6c0-2.3-1.3-5.5-4.6-5.5
		C576.1,322.9,574.6,325.8,574.6,328.5z"/>
	<path fill="#8B8C8C" d="M609.2,326.4c-0.2-2.7-0.4-5.9-0.4-7.9h-0.1c-0.6,1.9-1.4,4-2.4,6.6l-3.7,9.7h-0.9l-3.5-9.4
		c-1-2.8-1.8-4.9-2.3-6.9h-0.1c0,2.1-0.2,5.2-0.4,8.1l-0.6,8.2h-1.2l1.3-17.8h1.5l3.8,10.2c0.8,2.3,1.5,4.1,2,5.8h0.1
		c0.5-1.6,1.1-3.4,2-5.7l4-10.3h1.5l1.2,17.8h-1.2L609.2,326.4z"/>
	<path fill="#8B8C8C" d="M624.6,331.8c0,1.1,0.1,2.1,0.1,3.1h-1.2l-0.1-2.2h-0.1c-0.6,1.2-2.1,2.5-4.4,2.5c-1.6,0-4.3-0.8-4.3-5.6
		v-7.4h1.2v7.1c0,2.7,0.9,4.7,3.4,4.7c1.8,0,3.2-1.3,3.7-2.6c0.1-0.4,0.3-0.9,0.3-1.4v-7.9h1.2V331.8z"/>
	<path fill="#8B8C8C" d="M628.8,325.2c0-1.2-0.1-2-0.1-3h1.2l0.1,2.2h0.1c0.8-1.5,2-2.5,4.1-2.5c1.8,0,3.1,1.2,3.6,2.8h0.1
		c0.4-0.8,0.8-1.3,1.3-1.7c0.8-0.7,1.7-1.1,3-1.1c1.2,0,4.1,0.7,4.1,5.5v7.5H645v-7.3c0-2.8-1.1-4.5-3.3-4.5c-1.6,0-2.8,1.2-3.3,2.5
		c-0.1,0.4-0.2,0.8-0.2,1.2v8.1h-1.2v-7.9c0-2.3-1.1-4-3.1-4c-1.7,0-3,1.4-3.5,2.8c-0.1,0.3-0.2,0.8-0.2,1.2v7.8h-1.2V325.2z"/>
	<path fill="#8B8C8C" d="M650.3,334.8c0.1-0.9,0.1-2,0.1-3v-15.8h1.2v8.4h0.1c0.8-1.6,2.4-2.6,4.6-2.6c3.2,0,5.4,2.7,5.4,6.5
		c0,4.5-2.9,6.8-5.6,6.8c-2,0-3.5-0.8-4.5-2.6h-0.1l-0.1,2.3H650.3z M651.7,330c0,0.3,0.1,0.6,0.1,0.9c0.6,1.9,2.2,3.2,4.2,3.2
		c2.9,0,4.6-2.4,4.6-5.7c0-2.9-1.6-5.5-4.5-5.5c-1.8,0-3.6,1.3-4.2,3.4c-0.1,0.3-0.2,0.7-0.2,1.1V330z"/>
	<path fill="#8B8C8C" d="M671.9,334.8l-0.2-1.8h-0.1c-0.6,1-2,2.1-4,2.1c-2.5,0-3.7-1.8-3.7-3.5c0-2.9,2.6-4.7,7.7-4.6v-0.3
		c0-1.3-0.2-3.8-3.2-3.7c-1.1,0-2.3,0.3-3.2,0.9l-0.4-0.9c1.1-0.8,2.6-1.1,3.7-1.1c3.7,0,4.4,2.7,4.4,5v4.9c0,1,0.1,2,0.2,3H671.9z
		 M671.6,328.1c-2.8-0.1-6.4,0.3-6.4,3.4c0,1.8,1.2,2.6,2.5,2.6c2.1,0,3.3-1.3,3.7-2.5c0.1-0.3,0.1-0.5,0.1-0.8V328.1z"/>
	<path fill="#8B8C8C" d="M678.6,318.6c0,0.6-0.4,1.1-1.1,1.1c-0.6,0-1-0.5-1-1.1s0.4-1.1,1-1.1C678.2,317.5,678.6,318,678.6,318.6z
		 M676.9,334.8v-12.7h1.2v12.7H676.9z"/>
</g>
<g>
	<path fill="#8B8C8C" d="M261,317.1h-1.4v-0.6h3.5v0.6h-1.4v5.2H261V317.1z"/>
	<path fill="#8B8C8C" d="M267.5,319.7c0-0.8-0.1-1.8-0.1-2.5h0c-0.2,0.7-0.4,1.4-0.6,2.2l-0.8,2.8h-0.5l-0.8-2.8
		c-0.2-0.8-0.4-1.6-0.5-2.3h0c0,0.7,0,1.7-0.1,2.6l-0.1,2.5h-0.6l0.3-5.8h0.8l0.8,2.8c0.2,0.7,0.4,1.4,0.5,2h0
		c0.1-0.6,0.3-1.2,0.5-2l0.8-2.8h0.8l0.3,5.8h-0.6L267.5,319.7z"/>
</g>
<g>
	<path fill="#8B8C8C" d="M681.9,279.2h-2.2v-1.9h6.3v1.9h-2.2v8.2h-1.8V279.2z"/>
	<path fill="#8B8C8C" d="M693.8,283.5c0-1.2-0.1-2.7-0.1-4.1h0c-0.3,1.3-0.6,2.7-0.9,3.9l-1,3.9h-1.4l-0.9-3.9
		c-0.3-1.2-0.5-2.6-0.7-3.9h0c0,1.4-0.1,2.9-0.1,4.2l-0.1,3.8h-1.7l0.5-10.1h2.5l0.8,3.4c0.3,1.2,0.5,2.4,0.7,3.6h0
		c0.2-1.2,0.5-2.5,0.8-3.6l0.9-3.3h2.4l0.4,10.1h-1.8L693.8,283.5z"/>
</g>
<circle fill="#4B77BB" cx="399.1" cy="197" r="60.8"/>
<g>
	<path fill="#FFFFFF" d="M365.2,170.9c6.5,0,9.9,4.8,9.9,13.3v1.7h-6.3v-2.2c0-3.8-1.2-5.2-3.3-5.2s-3.3,1.4-3.3,5.2
		c0,10.8,13.1,12.9,13.1,28c0,8.4-3.4,13.3-10,13.3c-6.6,0-10-4.8-10-13.3v-3.2h6.3v3.8c0,3.8,1.3,5.1,3.5,5.1
		c2.1,0,3.5-1.4,3.5-5.1c0-10.8-13.1-12.9-13.1-28C355.3,175.7,358.7,170.9,365.2,170.9z"/>
	<path fill="#FFFFFF" d="M385.6,195h8.6v7.5h-8.6v21.8h-6.7v-52.7h17.7v7.5h-11V195z"/>
	<path fill="#FFFFFF" d="M399.9,171.5h10.6c6.7,0,10,4.6,10,13v26.7c0,8.4-3.3,13-10,13h-10.6V171.5z M406.6,179.1v37.7h3.8
		c2.1,0,3.4-1.4,3.4-5.1v-27.4c0-3.8-1.3-5.1-3.4-5.1H406.6z"/>
	<path fill="#FFFFFF" d="M431.4,193.7h9.2v7.5h-9.2v15.4H443v7.5h-18.3v-52.7H443v7.5h-11.6V193.7z"/>
</g>
<path opacity="9.000000e-002" fill="#FFFFFF" d="M357.1,240.9l85.9-85.9c-11.1-11.6-26.6-18.8-43.9-18.8
	c-33.6,0-60.8,27.2-60.8,60.8C338.3,214.3,345.5,229.8,357.1,240.9z"/>
</svg>
